# xmcd
# Copyright (C) 1995-1998 Ti Kan
#
# Track frame offsets:
#       150
#       15745
#       29545
#       46075
#       65127
#       83360
#       99502
#       112780
#       134797
#       148135
#       160320
#       181757
#       197325
#       219930
#
# Disc length: 3128 seconds
#
# Revision: 0
# Processed by: cddbd v1.5.1PL0 Copyright (c) Steve Scherf et al.
# Submitted via: CD-Transfer v1.0
#
DISCID=b80c360e
DTITLE=Piano Connection - 
DYEAR=95
DGENRE=
TTITLE0=Zooge am Booge
TTITLE1=Oh, when the Saints
TTITLE2=Occhi Neri
TTITLE3=Super Boogie
TTITLE4=Fifth step Blues
TTITLE5=Stride Charleston
TTITLE6=Boogie on the Hill
TTITLE7=Would you, please?
TTITLE8=Telephone Boogie
TTITLE9=Six Ring Boogie
TTITLE10=Schrupper Boogie
TTITLE11=Monkey's Tongue turns loose
TTITLE12=Hamm-ond-eggs Blues
TTITLE13=The Bird is calling
EXTD=
EXTT0=
EXTT1=
EXTT2=
EXTT3=
EXTT4=
EXTT5=
EXTT6=
EXTT7=
EXTT8=
EXTT9=
EXTT10=
EXTT11=
EXTT12=
EXTT13=
PLAYORDER=
